# Made in Blockbench 4.12.6
mtllib knife.mtl

o cube
v 0.018750000000000003 0.2375 0.03125
v 0.018750000000000003 0.2375 -0.03125
v 0.018750000000000003 0.02187500000000002 0.03125
v 0.018750000000000003 0.02187500000000002 -0.03125
v -0.018750000000000003 0.2375 -0.03125
v -0.018750000000000003 0.2375 0.03125
v -0.018750000000000003 0.02187500000000002 -0.03125
v -0.018750000000000003 0.02187500000000002 0.03125
vt 0.3125 0.5625
vt 0.34375 0.5625
vt 0.34375 0.34375
vt 0.3125 0.34375
vt 0.375 1
vt 0.4375 1
vt 0.4375 0.78125
vt 0.375 0.78125
vt 0.5 0.875
vt 0.53125 0.875
vt 0.53125 0.65625
vt 0.5 0.65625
vt 0.375 0.75
vt 0.4375 0.75
vt 0.4375 0.53125
vt 0.375 0.53125
vt 0.59375 0.75
vt 0.5625 0.75
vt 0.5625 0.8125
vt 0.59375 0.8125
vt 0.28125 0.4375
vt 0.25 0.4375
vt 0.25 0.375
vt 0.28125 0.375
vn 0 0 -1
vn 1 0 0
vn 0 0 1
vn -1 0 0
vn 0 1 0
vn 0 -1 0
usemtl m_89d044d2-4168-c431-e592-59dbc486b1c7
f 4/4/1 7/3/1 5/2/1 2/1/1
f 3/8/2 4/7/2 2/6/2 1/5/2
f 8/12/3 3/11/3 1/10/3 6/9/3
f 7/16/4 8/15/4 6/14/4 5/13/4
f 6/20/5 1/19/5 2/18/5 5/17/5
f 7/24/6 4/23/6 3/22/6 8/21/6
o cuboid
v 0.020312499999999997 0.021875000000000006 0.042187499999999996
v 0.020312499999999997 0.021875000000000006 -0.042187499999999996
v 0.012499999999999994 -0.018750000000000017 0.0359375
v 0.012499999999999994 -0.018750000000000017 -0.0359375
v -0.020312499999999997 0.021875000000000006 0.042187499999999996
v -0.020312499999999997 0.021875000000000006 -0.042187499999999996
v -0.012499999999999994 -0.018750000000000017 0.0359375
v -0.012499999999999994 -0.018750000000000017 -0.0359375
vt 0.5890625 0.625
vt 0.5046875 0.625
vt 0.5109375 0.5625
vt 0.5828125 0.5625
vt 0.375 0.4375
vt 0.4375 0.4375
vt 0.4375 0.5
vt 0.375 0.5
vt 0.5625 0.4375
vt 0.5625 0.5
vt 0.5 0.5
vt 0.5 0.4375
vt 0.23125 0.375
vt 0.2390625 0.4375
vt 0.1984375 0.4375
vt 0.20625 0.375
vt 0.6140625 0.875
vt 0.5734375 0.875
vt 0.58125 0.8125
vt 0.60625 0.8125
vt 0.5828125 0.5
vt 0.5890625 0.5625
vt 0.5046875 0.5625
vt 0.5109375 0.5
vn 0.9820064469806473 -0.18884739365012448 0
vn 0 1 0
vn 0 -1 0
vn 0 -0.15205718425394096 0.9883716976506172
vn 0 -0.152057184253941 -0.9883716976506173
vn -0.9820064469806475 -0.1888473936501245 0
usemtl m_89d044d2-4168-c431-e592-59dbc486b1c7
f 10/25/7 9/26/7 11/27/7 12/28/7
f 13/29/8 9/30/8 10/31/8 14/32/8
f 12/33/9 11/34/9 15/35/9 16/36/9
f 11/37/10 9/38/10 13/39/10 15/40/10
f 14/41/11 10/42/11 12/43/11 16/44/11
f 15/45/12 13/46/12 14/47/12 16/48/12
o cuboid
v 0.026562500000000003 0.271875 0.07656249999999999
v 0.026562500000000003 0.271875 -0.07656249999999999
v 0.025000000745058065 0.23749999701976776 0.05
v 0.025000000745058065 0.23749999701976776 -0.05
v -0.026562500000000003 0.271875 0.07656249999999999
v -0.026562500000000003 0.271875 -0.07656249999999999
v -0.025000000745058065 0.23749999701976776 0.05
v -0.025000000745058065 0.23749999701976776 -0.05
vt 0.4375 0.75
vt 0.5 0.75
vt 0.5 0.875
vt 0.4375 0.875
vt 0.25 0.4375
vt 0.25 0.5625
vt 0.1875 0.5625
vt 0.1875 0.4375
vt 0.11875 0.375
vt 0.1203125 0.4375
vt 0.0671875 0.4375
vt 0.06875 0.375
vt 0.1828125 0.4375
vt 0.1296875 0.4375
vt 0.13125 0.375
vt 0.18125 0.375
vt 0.5921875 1
vt 0.4390625 1
vt 0.465625 0.9375
vt 0.565625 0.9375
vt 0.565625 0.875
vt 0.5921875 0.9375
vt 0.4390625 0.9375
vt 0.465625 0.875
vn 0 1 0
vn 0 -1 0
vn 0 -0.6114474678838413 0.7912850270404711
vn 0 -0.6114474678838413 -0.7912850270404711
vn 0.9989685413710283 -0.0454076353826143 0
vn -0.9989685413710283 -0.0454076353826143 0
usemtl m_89d044d2-4168-c431-e592-59dbc486b1c7
f 21/49/13 17/50/13 18/51/13 22/52/13
f 20/53/14 19/54/14 23/55/14 24/56/14
f 19/57/15 17/58/15 21/59/15 23/60/15
f 22/61/16 18/62/16 20/63/16 24/64/16
f 18/65/17 17/66/17 19/67/17 20/68/17
f 23/69/18 21/70/18 22/71/18 24/72/18
o cuboid
v 0.006249999999999988 0.73125 0.018750000000000003
v 0.006249999999999988 0.8234375000000004 -0.03125
v 0.006249999999999988 0.26875 0.018750000000000003
v 0.006249999999999988 0.26875 -0.03125
v -0.006249999999999988 0.73125 0.018750000000000003
v -0.006249999999999988 0.8234375000000004 -0.03125
v -0.006249999999999988 0.26875 0.018750000000000003
v -0.006249999999999988 0.26875 -0.03125
vt 0.0625 1
vt 0 0.9078124999999999
vt 0 0.4375
vt 0.0625 0.4375
vt 0.446875 0.645125
vt 0.459375 0.645125
vt 0.459375 0.75
vt 0.446875 0.75
vt 0.0625 0.375
vt 0.0625 0.4375
vt 0 0.4375
vt 0 0.375
vt 0.459375 0.18262500000000004
vt 0.459375 0.645125
vt 0.446875 0.645125
vt 0.446875 0.18262500000000004
vt 0.125 1
vt 0.0625 1
vt 0.0625 0.4375
vt 0.125 0.4375
vt 0.1875 0.4375
vt 0.1875 0.9078124999999999
vt 0.125 1
vt 0.125 0.4375
vn 1 0 0
vn 0 0.4767630403778849 0.8790318556967294
vn 0 -1 0
vn 0 0 1
vn 0 0 -1
vn -1 0 0
usemtl m_89d044d2-4168-c431-e592-59dbc486b1c7
f 26/73/19 25/74/19 27/75/19 28/76/19
f 29/77/20 25/78/20 26/79/20 30/80/20
f 28/81/21 27/82/21 31/83/21 32/84/21
f 27/85/22 25/86/22 29/87/22 31/88/22
f 30/89/23 26/90/23 28/91/23 32/92/23
f 31/93/24 29/94/24 30/95/24 32/96/24
o cuboid
v -1.1709383462843448e-17 0.73125 0.031249999999999993
v 0.006249999999999988 0.73125 0.018750000000000003
v -1.1709383462843448e-17 0.26875 0.031249999999999993
v 0.006249999999999988 0.26875 0.018749999999999996
v -0.006249999999999988 0.73125 0.018750000000000003
v -0.006249999999999988 0.26875 0.018749999999999996
vt 0.375 1
vt 0.3125 1
vt 0.3125 0.5625
vt 0.375 0.5625
vt 0.578125 0.675
vt 0.584375 0.6875
vt 0.571875 0.6875
vt 0.515625 0.42500000000000004
vt 0.521875 0.4375
vt 0.509375 0.4375
vt 0.25 1
vt 0.1875 1
vt 0.1875 0.5625
vt 0.25 0.5625
vt 0.3125 0.5625
vt 0.3125 1
vt 0.25 1
vt 0.25 0.5625
vn 0.8944271909999159 0 0.44721359549995826
vn 0 1 0
vn 0 1 0
vn 0 1.5003013846285903e-17 -1
vn -0.8944271909999166 0 0.4472135954999569
usemtl m_89d044d2-4168-c431-e592-59dbc486b1c7
f 34/97/25 33/98/25 35/99/25 36/100/25
f 33/101/26 34/102/26 37/103/26
f 35/104/27 36/105/27 38/106/27
f 37/107/28 34/108/28 36/109/28 38/110/28
f 35/111/29 33/112/29 37/113/29 38/114/29
o cuboid
v -1.214306433183765e-17 0.8484374999999997 -0.03125000000000001
v 0.006249999999999988 0.8234375000000005 -0.03125
v -1.214306433183765e-17 0.7312499999999987 0.031249999999999993
v 0.006249999999999988 0.73125 0.018750000000000003
v -0.006249999999999988 0.8234375000000005 -0.03125
v -0.006249999999999988 0.73125 0.018750000000000003
vt 0.6753753296537768 0.7405157250905559
vt 0.6875 0.75
vt 0.5642253629783787 0.75
vt 0.5705682339539416 0.7377774055163251
vt 0.390625 0.43143750000000003
vt 0.384375 0.41737500000000005
vt 0.396875 0.41737500000000005
vt 0.578125 0.48750000000000004
vt 0.584375 0.5
vt 0.571875 0.5
vt 0.396875 0.41737500000000005
vt 0.384375 0.41737500000000005
vt 0.384375 0.3125
vt 0.396875 0.3125
vt 0.3125 0.43922536297837866
vt 0.3125 0.5625
vt 0.25273831957423076 0.5503753296537767
vt 0.25 0.44556823395394163
vn 0.8831157194574039 0.22077892986435727 0.41396049349567343
vn 0 -2.775557561562969e-16 -1
vn 0 1 9.769962616701384e-14
vn 0 -0.47676304037788464 -0.8790318556967294
vn -0.8831157194574045 0.22077892986435657 0.41396049349567215
usemtl m_89d044d2-4168-c431-e592-59dbc486b1c7
f 40/115/30 39/116/30 41/117/30 42/118/30
f 39/119/31 40/120/31 43/121/31
f 41/122/32 42/123/32 44/124/32
f 43/125/33 40/126/33 42/127/33 44/128/33
f 41/129/34 39/130/34 43/131/34 44/132/34