# Made in Blockbench 4.12.6
mtllib shield.mtl

o cuboid
v 0.04375 1.20625 0.04375
v 0.04375 1.20625 -0.04375
v 0.0625 1.16875 0.0625
v 0.0625 1.16875 -0.0625
v -0.04375 1.20625 0.04375
v -0.04375 1.20625 -0.04375
v -0.0625 1.16875 0.0625
v -0.0625 1.16875 -0.0625
vt 0.29375 0.3125
vt 0.20625 0.3125
vt 0.1875 0.25
vt 0.3125 0.25
vt 0.75 0.3125
vt 0.73125 0.375
vt 0.64375 0.375
vt 0.625 0.3125
vt 0.1875 0.125
vt 0.25 0.125
vt 0.25 0.1875
vt 0.1875 0.1875
vt 0.5625 0.5
vt 0.5625 0.625
vt 0.4375 0.625
vt 0.4375 0.5
vt 0.75 0.5625
vt 0.73125 0.625
vt 0.64375 0.625
vt 0.625 0.5625
vt 0.73125 0.5
vt 0.64375 0.5
vt 0.625 0.4375
vt 0.75 0.4375
vn 0.8944271909999161 0.4472135954999577 0
vn -0.8944271909999161 0.4472135954999576 0
vn 0 1 0
vn 0 -1 0
vn 0 0.4472135954999576 0.8944271909999161
vn 0 0.4472135954999577 -0.8944271909999161
usemtl m_21698247-3dad-e5d5-7784-4823d393a368
f 2/1/1 1/2/1 3/3/1 4/4/1
f 7/5/2 5/6/2 6/7/2 8/8/2
f 5/9/3 1/10/3 2/11/3 6/12/3
f 4/13/4 3/14/4 7/15/4 8/16/4
f 3/17/5 1/18/5 5/19/5 7/20/5
f 6/21/6 2/22/6 4/23/6 8/24/6
o cuboid
v -0.04374999999999996 1.1312499999999985 0.04375
v -0.04374999999999996 1.1312499999999985 -0.04375
v -0.06249999999999997 1.1687499999999986 0.0625
v -0.06249999999999997 1.1687499999999986 -0.0625
v 0.04375000000000003 1.1312499999999985 0.04375
v 0.04375000000000003 1.1312499999999985 -0.04375
v 0.06250000000000003 1.1687499999999986 0.0625
v 0.06250000000000003 1.1687499999999986 -0.0625
vt 0.91875 0.875
vt 0.83125 0.875
vt 0.8125 0.8125
vt 0.9375 0.8125
vt 0.9375 0.9375
vt 0.91875 1
vt 0.83125 1
vt 0.8125 0.9375
vt 0.4375 0.0625
vt 0.5 0.0625
vt 0.5 0.125
vt 0.4375 0.125
vt 0.75 0.6875
vt 0.75 0.8125
vt 0.625 0.8125
vt 0.625 0.6875
vt 0.6875 0.1875
vt 0.66875 0.25
vt 0.58125 0.25
vt 0.5625 0.1875
vt 0.85625 0.25
vt 0.76875 0.25
vt 0.75 0.1875
vt 0.875 0.1875
vn -0.8944271909999161 -0.4472135954999578 0
vn 0.8944271909999161 -0.4472135954999575 0
vn 1.2246467991473532e-16 -1 0
vn -1.2246467991473532e-16 1 0
vn 5.4767869826420225e-17 -0.4472135954999576 0.8944271909999161
vn 5.476786982642024e-17 -0.4472135954999577 -0.8944271909999161
usemtl m_21698247-3dad-e5d5-7784-4823d393a368
f 10/25/7 9/26/7 11/27/7 12/28/7
f 15/29/8 13/30/8 14/31/8 16/32/8
f 13/33/9 9/34/9 10/35/9 14/36/9
f 12/37/10 11/38/10 15/39/10 16/40/10
f 11/41/11 9/42/11 13/43/11 15/44/11
f 14/45/12 10/46/12 12/47/12 16/48/12
o cuboid
v -0.02499999999999997 1.0968749999999992 0.02499999999999999
v -0.02499999999999997 1.0968749999999992 -0.02499999999999999
v -0.024999999999999974 1.1343749999999992 0.02499999999999999
v -0.024999999999999974 1.1343749999999992 -0.02499999999999999
v 0.025000000000000033 1.0968749999999992 0.02499999999999999
v 0.025000000000000033 1.0968749999999992 -0.02499999999999999
v 0.02500000000000003 1.1343749999999992 0.02499999999999999
v 0.02500000000000003 1.1343749999999992 -0.02499999999999999
vt 0.875 0.75
vt 0.8125 0.75
vt 0.8125 0.6875
vt 0.875 0.6875
vt 0.875 0.5625
vt 0.875 0.625
vt 0.8125 0.625
vt 0.8125 0.5625
vt 0.8125 0.4375
vt 0.875 0.4375
vt 0.875 0.5
vt 0.8125 0.5
vt 0.875 0.3125
vt 0.875 0.375
vt 0.8125 0.375
vt 0.8125 0.3125
vt 0.0625 0.0625
vt 0.0625 0.125
vt 0 0.125
vt 0 0.0625
vt 0.375 0.125
vt 0.3125 0.125
vt 0.3125 0.0625
vt 0.375 0.0625
vn -1 -1.2246467991473532e-16 0
vn 1 1.2246467991473532e-16 0
vn 1.2246467991473532e-16 -1 0
vn -1.2246467991473532e-16 1 0
vn 0 0 1
vn 0 0 -1
usemtl m_21698247-3dad-e5d5-7784-4823d393a368
f 18/49/13 17/50/13 19/51/13 20/52/13
f 23/53/14 21/54/14 22/55/14 24/56/14
f 21/57/15 17/58/15 18/59/15 22/60/15
f 20/61/16 19/62/16 23/63/16 24/64/16
f 19/65/17 17/66/17 21/67/17 23/68/17
f 22/69/18 18/70/18 20/71/18 24/72/18
o beveled_cuboid
v 0.056249999999999994 1.0968750000000007 0.044531249999999994
v 0.056249999999999994 1.0968750000000007 -0.04453124999999998
v -0.056249999999999994 1.0968750000000007 0.044531249999999994
v -0.056249999999999994 1.0968750000000007 -0.04453124999999998
v 0.056249999999999994 0.7937500000000006 0.03515625
v 0.056249999999999994 0.7937500000000006 -0.03515625
v -0.056249999999999994 0.7937500000000006 0.03515625
v -0.056249999999999994 0.7937500000000006 -0.03515625
v -0.075 0.8695312500000006 0.05078125
v -0.075 1.0210937500000008 0.08203125
v -0.075 0.8695312500000006 -0.050781249999999944
v -0.075 1.0210937500000008 -0.08203125
v 0.075 0.8695312500000006 0.05078125
v 0.075 1.0210937500000008 0.08203125
v 0.075 0.8695312500000006 -0.050781249999999944
v 0.075 1.0210937500000008 -0.08203125
v 0.056249999999999994 0.8695312500000006 -0.078125
v 0.056249999999999994 1.0210937500000008 -0.109375
v -0.056249999999999994 0.8695312500000006 -0.078125
v -0.056249999999999994 1.0210937500000008 -0.109375
v 0.056249999999999994 0.8695312500000006 0.078125
v 0.056249999999999994 1.0210937500000008 0.109375
v -0.056249999999999994 0.8695312500000006 0.078125
v -0.056249999999999994 1.0210937500000008 0.109375
vt 0.51953125 0.92193125
vt 0.35546875 0.92193125
vt 0.38671875 0.7703687499999999
vt 0.48828125 0.7703687499999999
vt 0.1757815045514669 0.7635723815621986
vt 0.2070315045514669 0.9151348815621987
vt 0.04296900455146689 0.9151348815621987
vt 0.07421900455146689 0.7635723815621986
vt 0.125 0.1875
vt 0.125 0.25
vt 0 0.25
vt 0 0.1875
vt 0.375 0.1875
vt 0.5 0.1875
vt 0.5 0.25
vt 0.375 0.25
vt 0.36875 0.46211875
vt 0.36875 0.61686875
vt 0.25625 0.61686875
vt 0.25625 0.46211875
vt 0.11875 0.55436875
vt 0.006249999999999999 0.55436875
vt 0.006249999999999999 0.39961875
vt 0.11875 0.39961875
vt 0.48203125 1
vt 0.39296875 1
vt 0.35546875 0.92193125
vt 0.51953125 0.92193125
vt 0.2070315045514669 0.9151348815621987
vt 0.16953150455146687 0.9932036315621986
vt 0.0804690045514669 0.9932036315621986
vt 0.04296900455146689 0.9151348815621987
vt 0.5625 0.3125
vt 0.5625 0.4375
vt 0.4375 0.4375
vt 0.4375 0.3125
vt 0.75 1
vt 0.625 1
vt 0.625 0.875
vt 0.75 0.875
vt 0.38671875 0.7703687499999999
vt 0.40234375 0.6923062499999999
vt 0.47265625 0.6923062499999999
vt 0.48828125 0.7703687499999999
vt 0.07937168880280021 0.6841276820641684
vt 0.14906530252407296 0.6748191986903841
vt 0.17488725733667276 0.7501260455298717
vt 0.07421870418372321 0.7635716326253379
vt 0.25625 0.375
vt 0.36875 0.375
vt 0.36875 0.46211875
vt 0.25625 0.46211875
vt 0.006249999999999999 0.39961875
vt 0.006249999999999999 0.3125
vt 0.11875 0.3125
vt 0.11875 0.39961875
vt 0.4882817591029338 0.7703712191492289
vt 0.5214102371102647 0.7691768804544712
vt 0.5526659739496399 0.9207366861282636
vt 0.51953125 0.92193125
vt 0.3223340260503601 0.9207366861282636
vt 0.35358976288973537 0.7691768804544712
vt 0.38671824089706625 0.7703712191492289
vt 0.35546875 0.92193125
vt 0.009834280601826964 0.9139403176904624
vt 0.04109001744120226 0.7623805120166699
vt 0.07421849544853312 0.7635748507114275
vt 0.04296900455146689 0.9151348815621987
vt 0.1757815045514669 0.7635723815621986
vt 0.20890998255879772 0.7623780428674409
vt 0.24016571939817305 0.9139378485412333
vt 0.2070309954485331 0.9151324124129696
vt 0.40234375 0.6923062499999999
vt 0.3867181170682941 0.7703719121268024
vt 0.3540393491744804 0.7648022955383604
vt 0.1706283111971998 0.6841252129149394
vt 0.20890998255879772 0.7623780428674409
vt 0.1757815045514669 0.7635723815621986
vt 0.47265625 0.6923062499999999
vt 0.5209606508255196 0.7648022955383604
vt 0.4882818829317059 0.7703719121268024
vt 0.07937168880280021 0.6841276820641684
vt 0.07421849544853312 0.7635748507114275
vt 0.04109001744120226 0.7623805120166699
vt 0.39296875 1
vt 0.3230480539846232 0.928874227409906
vt 0.35546959726217586 0.9219330138586398
vt 0.18975232496183364 0.999997530850771
vt 0.2070309954485331 0.9151324124129696
vt 0.24016571939817305 0.9139378485412333
vt 0.48203125 1
vt 0.5195304027378241 0.9219330138586398
vt 0.5519519460153768 0.928874227409906
vt 0.06024767503816637 1
vt 0.009834280601826964 0.9139403176904624
vt 0.04296900455146689 0.9151348815621987
vn 1 0 0
vn -1 0 0
vn 0 1 0
vn 0 -1 0
vn 0 -0.2019378036474381 0.9793983476900749
vn 0 -0.2019378036474381 -0.9793983476900749
vn 0.9707283194618914 0.2401802027534578 0
vn -0.9707283194618914 0.24018020275345778 0
vn 0 0.6501460609749944 0.7598092519828243
vn 0 0.6501460609749944 -0.7598092519828242
vn 0.9707283194618914 -0.24018020275345778 0
vn -0.9707283194618914 -0.2401802027534577 0
vn 0 -0.49323882894981663 0.869893934693313
vn 0 -0.49323882894981663 -0.869893934693313
vn 0.8191786956915273 -0.11581907921411852 -0.5617225341884747
vn 0.8191786956915267 -0.11581907921411863 0.5617225341884754
vn -0.8191786956915271 -0.11581907921411849 -0.5617225341884747
vn -0.8191786956915268 -0.11581907921411866 0.5617225341884755
vn 0.7853409823368946 -0.3053461256803244 0.5385195307452992
vn -0.7853409823368946 -0.3053461256803244 0.5385195307452992
vn 0.7853409823368952 -0.305346125680324 -0.5385195307452986
vn -0.7853409823368952 -0.305346125680324 -0.5385195307452986
vn 0.7423771943593961 0.43558626543856194 0.5090586475607287
vn -0.7423771943593961 0.43558626543856194 0.5090586475607287
vn 0.742377194359396 0.43558626543856194 -0.5090586475607287
vn -0.742377194359396 0.43558626543856194 -0.5090586475607287
usemtl m_21698247-3dad-e5d5-7784-4823d393a368
f 40/73/19 38/74/19 37/75/19 39/76/19
f 33/77/20 34/78/20 36/79/20 35/80/20
f 25/81/21 26/82/21 28/83/21 27/84/21
f 32/85/22 30/86/22 29/87/22 31/88/22
f 45/89/23 46/90/23 48/91/23 47/92/23
f 44/93/24 42/94/24 41/95/24 43/96/24
f 26/97/25 25/98/25 38/99/25 40/100/25
f 34/101/26 27/102/26 28/103/26 36/104/26
f 46/105/27 25/106/27 27/107/27 48/108/27
f 28/109/28 26/110/28 42/111/28 44/112/28
f 37/113/29 29/114/29 30/115/29 39/116/29
f 32/117/30 31/118/30 33/119/30 35/120/30
f 31/121/31 29/122/31 45/123/31 47/124/31
f 41/125/32 30/126/32 32/127/32 43/128/32
f 39/129/33 41/130/33 42/131/33 40/132/33
f 46/133/34 45/134/34 37/135/34 38/136/34
f 44/137/35 43/138/35 35/139/35 36/140/35
f 33/141/36 47/142/36 48/143/36 34/144/36
f 29/145/37 37/146/37 45/147/37
f 31/148/38 47/149/38 33/150/38
f 30/151/39 41/152/39 39/153/39
f 32/154/40 35/155/40 43/156/40
f 25/157/41 46/158/41 38/159/41
f 27/160/42 34/161/42 48/162/42
f 26/163/43 40/164/43 42/165/43
f 28/166/44 44/167/44 36/168/44
o cuboid
v -0.02499999999999997 1.0968749999999992 0.02499999999999999
v -0.02499999999999997 1.0968749999999992 -0.02499999999999999
v -0.024999999999999974 1.1343749999999992 0.02499999999999999
v -0.024999999999999974 1.1343749999999992 -0.02499999999999999
v 0.025000000000000033 1.0968749999999992 0.02499999999999999
v 0.025000000000000033 1.0968749999999992 -0.02499999999999999
v 0.02500000000000003 1.1343749999999992 0.02499999999999999
v 0.02500000000000003 1.1343749999999992 -0.02499999999999999
vt 0.875 0.75
vt 0.8125 0.75
vt 0.8125 0.6875
vt 0.875 0.6875
vt 0.875 0.5625
vt 0.875 0.625
vt 0.8125 0.625
vt 0.8125 0.5625
vt 0.8125 0.4375
vt 0.875 0.4375
vt 0.875 0.5
vt 0.8125 0.5
vt 0.875 0.3125
vt 0.875 0.375
vt 0.8125 0.375
vt 0.8125 0.3125
vt 0.0625 0.0625
vt 0.0625 0.125
vt 0 0.125
vt 0 0.0625
vt 0.375 0.125
vt 0.3125 0.125
vt 0.3125 0.0625
vt 0.375 0.0625
vn -1 -1.2246467991473532e-16 0
vn 1 1.2246467991473532e-16 0
vn 1.2246467991473532e-16 -1 0
vn -1.2246467991473532e-16 1 0
vn 0 0 1
vn 0 0 -1
usemtl m_2e7f33f2-83db-a931-4119-fa49979e47dd
f 50/169/45 49/170/45 51/171/45 52/172/45
f 55/173/46 53/174/46 54/175/46 56/176/46
f 53/177/47 49/178/47 50/179/47 54/180/47
f 52/181/48 51/182/48 55/183/48 56/184/48
f 51/185/49 49/186/49 53/187/49 55/188/49
f 54/189/50 50/190/50 52/191/50 56/192/50
o cuboid
v -0.04374999999999996 1.1312499999999985 0.04375
v -0.04374999999999996 1.1312499999999985 -0.04375
v -0.06249999999999997 1.1687499999999986 0.0625
v -0.06249999999999997 1.1687499999999986 -0.0625
v 0.04375000000000003 1.1312499999999985 0.04375
v 0.04375000000000003 1.1312499999999985 -0.04375
v 0.06250000000000003 1.1687499999999986 0.0625
v 0.06250000000000003 1.1687499999999986 -0.0625
vt 0.91875 0.875
vt 0.83125 0.875
vt 0.8125 0.8125
vt 0.9375 0.8125
vt 0.9375 0.9375
vt 0.91875 1
vt 0.83125 1
vt 0.8125 0.9375
vt 0.4375 0.0625
vt 0.5 0.0625
vt 0.5 0.125
vt 0.4375 0.125
vt 0.75 0.6875
vt 0.75 0.8125
vt 0.625 0.8125
vt 0.625 0.6875
vt 0.6875 0.1875
vt 0.66875 0.25
vt 0.58125 0.25
vt 0.5625 0.1875
vt 0.85625 0.25
vt 0.76875 0.25
vt 0.75 0.1875
vt 0.875 0.1875
vn -0.8944271909999161 -0.4472135954999578 0
vn 0.8944271909999161 -0.4472135954999575 0
vn 1.2246467991473532e-16 -1 0
vn -1.2246467991473532e-16 1 0
vn 5.4767869826420225e-17 -0.4472135954999576 0.8944271909999161
vn 5.476786982642024e-17 -0.4472135954999577 -0.8944271909999161
usemtl m_2e7f33f2-83db-a931-4119-fa49979e47dd
f 58/193/51 57/194/51 59/195/51 60/196/51
f 63/197/52 61/198/52 62/199/52 64/200/52
f 61/201/53 57/202/53 58/203/53 62/204/53
f 60/205/54 59/206/54 63/207/54 64/208/54
f 59/209/55 57/210/55 61/211/55 63/212/55
f 62/213/56 58/214/56 60/215/56 64/216/56
o cuboid
v 0.04375 1.20625 0.04375
v 0.04375 1.20625 -0.04375
v 0.0625 1.16875 0.0625
v 0.0625 1.16875 -0.0625
v -0.04375 1.20625 0.04375
v -0.04375 1.20625 -0.04375
v -0.0625 1.16875 0.0625
v -0.0625 1.16875 -0.0625
vt 0.29375 0.3125
vt 0.20625 0.3125
vt 0.1875 0.25
vt 0.3125 0.25
vt 0.75 0.3125
vt 0.73125 0.375
vt 0.64375 0.375
vt 0.625 0.3125
vt 0.1875 0.125
vt 0.25 0.125
vt 0.25 0.1875
vt 0.1875 0.1875
vt 0.5625 0.5
vt 0.5625 0.625
vt 0.4375 0.625
vt 0.4375 0.5
vt 0.75 0.5625
vt 0.73125 0.625
vt 0.64375 0.625
vt 0.625 0.5625
vt 0.73125 0.5
vt 0.64375 0.5
vt 0.625 0.4375
vt 0.75 0.4375
vn 0.8944271909999161 0.4472135954999577 0
vn -0.8944271909999161 0.4472135954999576 0
vn 0 1 0
vn 0 -1 0
vn 0 0.4472135954999576 0.8944271909999161
vn 0 0.4472135954999577 -0.8944271909999161
usemtl m_2e7f33f2-83db-a931-4119-fa49979e47dd
f 66/217/57 65/218/57 67/219/57 68/220/57
f 71/221/58 69/222/58 70/223/58 72/224/58
f 69/225/59 65/226/59 66/227/59 70/228/59
f 68/229/60 67/230/60 71/231/60 72/232/60
f 67/233/61 65/234/61 69/235/61 71/236/61
f 70/237/62 66/238/62 68/239/62 72/240/62
o beveled_cuboid
v 0.056249999999999994 1.0968750000000007 0.044531249999999994
v 0.056249999999999994 1.0968750000000007 -0.04453124999999998
v -0.056249999999999994 1.0968750000000007 0.044531249999999994
v -0.056249999999999994 1.0968750000000007 -0.04453124999999998
v 0.056249999999999994 0.7937500000000006 0.03515625
v 0.056249999999999994 0.7937500000000006 -0.03515625
v -0.056249999999999994 0.7937500000000006 0.03515625
v -0.056249999999999994 0.7937500000000006 -0.03515625
v -0.075 0.8695312500000006 0.08203125
v -0.075 1.0210937500000008 0.08203125
v -0.075 0.8695312500000006 -0.08203125
v -0.075 1.0210937500000008 -0.08203125
v 0.075 0.8695312500000006 0.08203125
v 0.075 1.0210937500000008 0.08203125
v 0.075 0.8695312500000006 -0.08203125
v 0.075 1.0210937500000008 -0.08203125
v 0.056249999999999994 0.8257812500000008 -0.109375
v 0.056249999999999994 1.0695312500000014 -0.109375
v -0.056249999999999994 0.8257812500000008 -0.109375
v -0.056249999999999994 1.0695312500000014 -0.109375
v 0.056249999999999994 0.8257812500000008 0.109375
v 0.056249999999999994 1.0695312500000014 0.109375
v -0.056249999999999994 0.8257812500000008 0.109375
v -0.056249999999999994 1.0695312500000014 0.109375
vt 0.51953125 0.92193125
vt 0.35546875 0.92193125
vt 0.38671875 0.7703687499999999
vt 0.48828125 0.7703687499999999
vt 0.1757815045514669 0.7635723815621986
vt 0.2070315045514669 0.9151348815621987
vt 0.04296900455146689 0.9151348815621987
vt 0.07421900455146689 0.7635723815621986
vt 0.125 0.1875
vt 0.125 0.25
vt 0 0.25
vt 0 0.1875
vt 0.375 0.1875
vt 0.5 0.1875
vt 0.5 0.25
vt 0.375 0.25
vt 0.36875 0.46211875
vt 0.36875 0.61686875
vt 0.25625 0.61686875
vt 0.25625 0.46211875
vt 0.11875 0.55436875
vt 0.006249999999999999 0.55436875
vt 0.006249999999999999 0.39961875
vt 0.11875 0.39961875
vt 0.48203125 1
vt 0.39296875 1
vt 0.35546875 0.92193125
vt 0.51953125 0.92193125
vt 0.2070315045514669 0.9151348815621987
vt 0.16953150455146687 0.9932036315621986
vt 0.0804690045514669 0.9932036315621986
vt 0.04296900455146689 0.9151348815621987
vt 0.5625 0.3125
vt 0.5625 0.4375
vt 0.4375 0.4375
vt 0.4375 0.3125
vt 0.75 1
vt 0.625 1
vt 0.625 0.875
vt 0.75 0.875
vt 0.38671875 0.7703687499999999
vt 0.40234375 0.6923062499999999
vt 0.47265625 0.6923062499999999
vt 0.48828125 0.7703687499999999
vt 0.07937168880280021 0.6841276820641684
vt 0.14906530252407296 0.6748191986903841
vt 0.17488725733667276 0.7501260455298717
vt 0.07421870418372321 0.7635716326253379
vt 0.25625 0.375
vt 0.36875 0.375
vt 0.36875 0.46211875
vt 0.25625 0.46211875
vt 0.006249999999999999 0.39961875
vt 0.006249999999999999 0.3125
vt 0.11875 0.3125
vt 0.11875 0.39961875
vt 0.4882817591029338 0.7703712191492289
vt 0.5214102371102647 0.7691768804544712
vt 0.5526659739496399 0.9207366861282636
vt 0.51953125 0.92193125
vt 0.3223340260503601 0.9207366861282636
vt 0.35358976288973537 0.7691768804544712
vt 0.38671824089706625 0.7703712191492289
vt 0.35546875 0.92193125
vt 0.009834280601826964 0.9139403176904624
vt 0.04109001744120226 0.7623805120166699
vt 0.07421849544853312 0.7635748507114275
vt 0.04296900455146689 0.9151348815621987
vt 0.1757815045514669 0.7635723815621986
vt 0.20890998255879772 0.7623780428674409
vt 0.24016571939817305 0.9139378485412333
vt 0.2070309954485331 0.9151324124129696
vt 0.40234375 0.6923062499999999
vt 0.3867181170682941 0.7703719121268024
vt 0.3540393491744804 0.7648022955383604
vt 0.1706283111971998 0.6841252129149394
vt 0.20890998255879772 0.7623780428674409
vt 0.1757815045514669 0.7635723815621986
vt 0.47265625 0.6923062499999999
vt 0.5209606508255196 0.7648022955383604
vt 0.4882818829317059 0.7703719121268024
vt 0.07937168880280021 0.6841276820641684
vt 0.07421849544853312 0.7635748507114275
vt 0.04109001744120226 0.7623805120166699
vt 0.39296875 1
vt 0.3230480539846232 0.928874227409906
vt 0.35546959726217586 0.9219330138586398
vt 0.18975232496183364 0.999997530850771
vt 0.2070309954485331 0.9151324124129696
vt 0.24016571939817305 0.9139378485412333
vt 0.48203125 1
vt 0.5195304027378241 0.9219330138586398
vt 0.5519519460153768 0.928874227409906
vt 0.06024767503816637 1
vt 0.009834280601826964 0.9139403176904624
vt 0.04296900455146689 0.9151348815621987
vn 1 0 0
vn -1 0 0
vn 0 1 0
vn 0 -1 0
vn 0 0 1
vn 0 0 -1
vn 0.9707283194618914 0.2401802027534578 0
vn -0.9707283194618914 0.24018020275345778 0
vn 0 0.921426271694112 0.38855324709991645
vn 0 0.921426271694112 -0.38855324709991634
vn 0.9707283194618914 -0.2401802027534577 0
vn -0.9707283194618914 -0.2401802027534577 0
vn 0 -0.9181422776021249 0.39625087770197154
vn 0 -0.9181422776021249 -0.39625087770197154
vn 0.824728851845978 0 -0.5655283555515278
vn 0.824728851845978 0 0.5655283555515278
vn -0.824728851845978 0 -0.5655283555515278
vn -0.824728851845978 0 0.5655283555515278
vn 0.9385866814611052 -0.31679905754719834 0.13672380378352833
vn -0.9385866814611052 -0.31679905754719834 0.13672380378352833
vn 0.9385866814611052 -0.31679905754719834 -0.13672380378352833
vn -0.9385866814611052 -0.31679905754719834 -0.13672380378352833
vn 0.9469661916546943 0.29608486168201836 0.12485506215506469
vn -0.9469661916546943 0.29608486168201836 0.12485506215506469
vn 0.9469661916546942 0.29608486168201836 -0.12485506215506466
vn -0.9469661916546942 0.29608486168201836 -0.12485506215506466
usemtl m_2e7f33f2-83db-a931-4119-fa49979e47dd
f 88/241/63 86/242/63 85/243/63 87/244/63
f 81/245/64 82/246/64 84/247/64 83/248/64
f 73/249/65 74/250/65 76/251/65 75/252/65
f 80/253/66 78/254/66 77/255/66 79/256/66
f 93/257/67 94/258/67 96/259/67 95/260/67
f 92/261/68 90/262/68 89/263/68 91/264/68
f 74/265/69 73/266/69 86/267/69 88/268/69
f 82/269/70 75/270/70 76/271/70 84/272/70
f 94/273/71 73/274/71 75/275/71 96/276/71
f 76/277/72 74/278/72 90/279/72 92/280/72
f 85/281/73 77/282/73 78/283/73 87/284/73
f 80/285/74 79/286/74 81/287/74 83/288/74
f 79/289/75 77/290/75 93/291/75 95/292/75
f 89/293/76 78/294/76 80/295/76 91/296/76
f 87/297/77 89/298/77 90/299/77 88/300/77
f 94/301/78 93/302/78 85/303/78 86/304/78
f 92/305/79 91/306/79 83/307/79 84/308/79
f 81/309/80 95/310/80 96/311/80 82/312/80
f 77/313/81 85/314/81 93/315/81
f 79/316/82 95/317/82 81/318/82
f 78/319/83 89/320/83 87/321/83
f 80/322/84 83/323/84 91/324/84
f 73/325/85 94/326/85 86/327/85
f 75/328/86 82/329/86 96/330/86
f 74/331/87 88/332/87 90/333/87
f 76/334/88 92/335/88 84/336/88